<svg xmlns="http://www.w3.org/2000/svg" viewBox="772 225.68 150.96 798.24" preserveAspectRatio="none" width="91.6" height="483.75">
  

  
  <path fill="#3a3a3a" d="M794.32 1022.72 L818.32 1018.88 L818.32 1020.56 L837.76 1020.8 L887.68 1016.48 L888.4 1016.48 L888.64 1016.48 L888.88 1016.24 L889.12 1016.24 L889.36 1016.24 L889.6 1016.24 L889.84 1016.24 L890.08 1016 L890.32 1016 L890.56 1016 L890.8 1016 L891.04 1015.76 L891.28 1015.76 L891.52 1015.76 L891.76 1015.52 L892 1015.52 L892.24 1015.52 L892.48 1015.28 L892.72 1015.28 L892.96 1015.28 L893.2 1015.04 L893.44 1015.04 L893.68 1014.8 L893.92 1014.8 L894.16 1014.8 L894.4 1014.56 L894.64 1014.56 L894.88 1014.32 L895.12 1014.32 L895.36 1014.08 L895.6 1014.08 L895.84 1013.84 L896.08 1013.84 L896.32 1013.6 L896.56 1013.6 L896.8 1013.36 L897.04 1013.12 L897.28 1013.12 L897.52 1012.88 L897.76 1012.88 L898 1012.64 L898.24 1012.64 L898.48 1012.4 L898.72 1012.16 L898.96 1012.16 L898.96 1011.92 L899.2 1011.68 L899.44 1011.68 L899.68 1011.44 L899.92 1011.2 L900.16 1011.2 L900.16 1010.96 L900.4 1010.72 L900.64 1010.72 L900.88 1010.48 L901.12 1010.24 L901.36 1010 L901.6 1009.76 L901.84 1009.52 L902.08 1009.52 L902.08 1009.28 L902.32 1009.04 L902.56 1008.8 L902.8 1008.56 L903.04 1008.32 L903.28 1008.08 L903.28 1007.84 L903.52 1007.84 L903.76 1007.6 L903.76 1007.36 L904 1007.12 L904.24 1006.88 L904.24 1006.64 L904.48 1006.64 L904.72 1006.4 L904.72 1006.16 L904.96 1005.92 L904.96 1005.68 L905.2 1005.44 L905.44 1005.2 L905.44 1004.96 L905.68 1004.72 L905.68 1004.48 L905.92 1004.48 L905.92 1004.24 L906.16 1004 L906.16 1003.76 L906.4 1003.52 L906.4 1003.28 L906.64 1003.04 L906.64 1002.8 L906.88 1002.56 L906.88 1002.32 L907.12 1002.08 L907.12 1001.84 L907.36 1001.6 L907.36 1001.36 L907.36 1001.12 L907.6 1000.88 L907.6 1000.64 L907.84 1000.4 L907.84 1000.16 L907.84 999.92 L908.08 999.68 L908.08 999.44 L908.08 999.2 L908.32 998.96 L908.32 998.72 L908.32 998.48 L908.32 998.24 L908.56 998 L908.56 997.76 L908.56 997.52 L908.56 997.28 L908.8 997.04 L908.8 996.8 L908.8 996.56 L908.8 996.32 L908.8 996.08 L909.04 995.84 L909.04 995.36 L909.04 995.12 L909.04 994.64 L909.04 255.2 L910 266.72 L910.72 278.24 L911.68 289.76 L912.4 301.28 L913.12 312.8 L913.84 324.32 L914.56 335.84 L915.04 347.36 L915.76 359.12 L916.48 370.64 L916.96 382.16 L917.44 393.68 L918.16 405.2 L918.64 416.72 L919.12 428.24 L919.36 440 L919.84 451.52 L920.32 463.04 L920.56 474.56 L921.04 486.08 L921.28 497.6 L921.52 509.36 L921.76 520.88 L922 532.4 L922.24 543.92 L922.48 555.44 L922.72 567.2 L922.72 578.72 L922.72 590.24 L922.96 601.76 L922.96 613.28 L922.96 625.04 L922.96 636.56 L922.96 648.08 L922.72 659.6 L922.72 671.12 L922.48 682.88 L922.48 694.4 L922.24 705.92 L922 717.44 L921.76 728.96 L921.52 740.48 L921.28 752.24 L921.04 763.76 L920.56 775.28 L920.32 786.8 L919.84 798.32 L919.36 809.84 L919.12 821.6 L918.64 833.12 L918.16 844.64 L917.44 856.16 L916.96 867.68 L916.48 879.2 L915.76 890.72 L915.04 902.48 L914.56 914 L913.84 925.52 L913.12 937.04 L912.4 948.56 L911.44 960.08 L910.72 971.6 L910 983.12 L909.04 994.64 L909.04 255.2 L909.04 254.72 L909.04 254.24 L909.04 254 L908.8 253.76 L908.8 253.52 L908.8 253.28 L908.8 253.04 L908.8 252.8 L908.56 252.56 L908.56 252.32 L908.56 252.08 L908.56 251.84 L908.32 251.36 L908.32 251.12 L908.32 250.88 L908.08 250.64 L908.08 250.4 L908.08 250.16 L907.84 249.92 L907.84 249.68 L907.84 249.44 L907.6 249.2 L907.6 248.96 L907.6 248.72 L907.36 248.48 L907.36 248.24 L907.12 248 L907.12 247.76 L906.88 247.52 L906.88 247.28 L906.64 247.04 L906.64 246.8 L906.4 246.56 L906.4 246.32 L906.16 246.08 L906.16 245.84 L905.92 245.6 L905.92 245.36 L905.68 245.12 L905.68 244.88 L905.44 244.64 L905.2 244.4 L905.2 244.16 L904.96 243.92 L904.72 243.68 L904.72 243.44 L904.48 243.2 L904.24 242.96 L904 242.72 L903.76 242.48 L903.76 242.24 L903.52 242 L903.28 241.76 L903.28 241.52 L903.04 241.52 L902.8 241.28 L902.56 241.04 L902.56 240.8 L902.32 240.56 L902.08 240.56 L901.84 240.32 L901.84 240.08 L901.6 239.84 L901.36 239.6 L901.12 239.6 L900.88 239.36 L900.64 239.12 L900.64 238.88 L900.4 238.88 L900.16 238.64 L899.92 238.4 L899.68 238.4 L899.44 238.16 L899.2 237.92 L898.96 237.68 L898.72 237.44 L898.48 237.44 L898.24 237.2 L898 236.96 L897.76 236.96 L897.52 236.72 L897.28 236.72 L897.04 236.48 L896.8 236.48 L896.56 236.24 L896.32 236 L896.08 236 L895.84 235.76 L895.6 235.76 L895.36 235.52 L895.12 235.52 L894.88 235.28 L894.64 235.28 L894.4 235.04 L894.16 235.04 L893.92 235.04 L893.68 234.8 L893.44 234.8 L893.2 234.56 L892.96 234.56 L892.72 234.56 L892.48 234.32 L892.24 234.32 L892 234.08 L891.76 234.08 L891.52 234.08 L891.28 234.08 L891.04 233.84 L890.8 233.84 L890.56 233.84 L890.08 233.6 L889.84 233.6 L889.6 233.6 L889.36 233.6 L889.12 233.36 L888.88 233.36 L888.64 233.36 L888.4 233.36 L888.16 233.36 L887.92 233.36 L887.68 233.12 L886.96 233.12 L886.48 233.12 L838.72 228.8 L818.32 229.28 L818.32 230.96 L794.32 227.12 Z"/>
  <path fill="#000000" d="M772 226.4 L772.96 225.68 L781.12 232.64 L783.76 232.4 L788.32 226.88 L793.12 226.88 L794.32 227.12 L794.32 1022.72 L793.6 1022.96 L788.56 1022.96 L784 1017.2 L781.12 1016.96 L773.2 1023.92 L772 1023.44 Z"/>
  <path fill="#c4c4c4" d="M919.36 920 L919.36 919.76 L919.36 919.52 L919.36 919.28 L919.36 919.04 L919.36 918.8 L919.36 918.56 L919.36 918.32 L919.36 918.08 L919.36 917.84 L919.36 917.6 L919.36 917.36 L919.36 917.12 L919.36 916.88 L919.36 916.64 L919.36 916.4 L919.36 916.16 L919.36 915.92 L919.36 915.68 L919.36 915.44 L919.36 915.2 L919.36 914.96 L919.36 914.72 L919.36 914.48 L919.36 914.24 L919.36 914 L919.36 913.76 L919.36 913.52 L919.36 913.28 L919.36 913.04 L919.36 912.8 L919.36 912.56 L919.36 912.32 L919.36 912.08 L919.36 911.84 L919.36 911.36 L919.36 911.12 L919.36 910.88 L919.36 910.64 L919.36 910.4 L919.36 910.16 L919.36 909.92 L919.36 909.44 L919.36 909.2 L919.36 908.96 L919.36 908.72 L919.36 908.48 L919.36 908 L919.36 907.76 L919.36 907.52 L919.36 907.04 L919.36 906.8 L919.36 906.56 L919.36 906.08 L919.36 905.84 L919.36 905.6 L919.36 905.12 L919.36 904.88 L919.36 904.4 L919.36 904.16 L919.36 903.68 L919.36 903.44 L919.36 902.96 L919.36 902.72 L919.36 902.24 L919.36 902 L919.36 901.52 L919.36 901.28 L919.36 900.8 L919.36 900.56 L919.36 900.08 L919.36 899.6 L919.36 899.36 L919.36 898.88 L919.36 898.64 L919.36 898.16 L919.36 897.68 L919.36 897.44 L919.36 896.96 L919.36 896.48 L919.36 896 L919.36 895.76 L919.36 895.28 L919.36 894.8 L919.36 894.56 L919.36 894.08 L919.36 893.6 L919.36 892.88 L919.36 891.92 L919.36 891.2 L919.36 890.24 L919.36 888.56 L919.36 887.6 L919.36 886.88 L919.36 885.92 L919.36 885.2 L919.36 884.24 L919.36 884 L919.36 883.52 L919.36 883.04 L919.36 882.56 L919.36 882.32 L919.36 881.84 L919.36 881.36 L919.36 881.12 L919.36 880.64 L919.36 880.16 L919.36 879.92 L919.36 879.44 L919.36 878.96 L919.36 878.72 L919.36 878.24 L919.36 877.76 L919.36 877.52 L919.36 877.04 L919.36 876.8 L919.36 876.32 L919.36 876.08 L919.36 875.6 L919.36 875.36 L919.36 874.88 L919.36 874.64 L919.36 874.16 L919.36 873.92 L919.36 873.44 L919.36 873.2 L919.36 872.72 L919.36 872.48 L919.36 872.24 L919.36 871.76 L919.36 871.52 L919.36 871.04 L919.36 870.8 L919.36 870.56 L919.36 870.32 L919.36 869.84 L919.36 869.6 L919.36 869.36 L919.36 869.12 L919.36 868.64 L919.36 868.4 L919.36 868.16 L919.36 867.92 L919.36 867.68 L919.36 867.2 L919.36 866.96 L919.36 866.72 L919.36 866.48 L919.36 866.24 L919.36 866 L919.36 865.76 L919.36 865.52 L919.36 865.28 L919.36 865.04 L919.36 864.8 L919.36 864.56 L919.36 864.32 L919.36 864.08 L919.36 863.84 L919.36 863.6 L919.36 863.36 L919.36 863.12 L919.36 862.88 L919.36 862.64 L919.36 862.4 L919.36 862.16 L919.36 861.92 L919.36 861.68 L919.36 861.44 L919.36 861.2 L919.36 860.96 L919.36 860.72 L919.36 860.48 L919.36 860.24 L919.36 860 L919.36 859.76 L919.36 859.52 L919.36 859.28 L919.36 859.04 L919.36 858.8 L919.36 858.56 L919.36 858.32 L919.36 858.08 L917.2 858.08 L919.36 858.08 L919.36 920 L913.84 920 Z"/>

  
  <path fill="none" stroke="#000000" stroke-width="4" stroke-linecap="round" stroke-linejoin="round" d="m887.68 1016.48h0.72 0.24l0.24-0.24h0.24 0.24 0.24 0.24l0.24-0.24h0.24 0.24 0.24l0.24-0.24h0.24 0.24l0.24-0.24h0.24 0.24l0.24-0.24h0.24 0.24l0.24-0.24h0.24l0.24-0.24h0.24 0.24l0.24-0.24h0.24l0.24-0.24h0.24l0.24-0.24h0.24l0.24-0.24h0.24l0.24-0.24h0.24l0.24-0.24 0.24-0.24h0.24l0.24-0.24h0.24l0.24-0.24h0.24l0.24-0.24 0.24-0.24h0.24v-0.24l0.24-0.24h0.24l0.24-0.24 0.24-0.24h0.24v-0.24l0.24-0.24h0.24l0.24-0.24 0.24-0.24 0.24-0.24 0.24-0.24 0.24-0.24h0.24v-0.24l0.24-0.24 0.24-0.24 0.24-0.24 0.24-0.24 0.24-0.24v-0.24h0.24l0.24-0.24v-0.24l0.24-0.24 0.24-0.24v-0.24h0.24l0.24-0.24v-0.24l0.24-0.24v-0.24l0.24-0.24 0.24-0.24v-0.24l0.24-0.24v-0.24h0.24v-0.24l0.24-0.24v-0.24l0.24-0.24v-0.24l0.24-0.24v-0.24l0.24-0.24v-0.24l0.24-0.24v-0.24l0.24-0.24v-0.24-0.24l0.24-0.24v-0.24l0.24-0.24v-0.24-0.24l0.24-0.24v-0.24-0.24l0.24-0.24v-0.24-0.24-0.24l0.24-0.24v-0.24-0.24-0.24l0.24-0.24v-0.24-0.24-0.24-0.24l0.24-0.24v-0.48-0.24-0.48m0-739.44l0.96 11.52 0.72 11.52 0.96 11.52 0.72 11.52 0.72 11.52 0.72 11.52 0.72 11.52 0.48 11.52 0.72 11.76 0.72 11.52 0.48 11.52 0.48 11.52 0.72 11.52 0.48 11.52 0.48 11.52 0.24 11.76 0.48 11.52 0.48 11.52 0.24 11.52 0.48 11.52 0.24 11.52 0.24 11.76 0.24 11.52 0.24 11.52 0.24 11.52 0.24 11.52 0.24 11.76v11.52 11.52l0.24 11.52v11.52 11.76 11.52 11.52l-0.24 11.52v11.52l-0.24 11.76v11.52l-0.24 11.52-0.24 11.52-0.24 11.52-0.24 11.52-0.24 11.76-0.24 11.52-0.48 11.52-0.24 11.52-0.48 11.52-0.48 11.52-0.24 11.76-0.48 11.52-0.48 11.52-0.72 11.52-0.48 11.52-0.48 11.52-0.72 11.52-0.72 11.76-0.48 11.52-0.72 11.52-0.72 11.52-0.72 11.52-0.96 11.52-0.72 11.52-0.72 11.52-0.96 11.52m0-739.44v-0.48-0.48-0.24l-0.24-0.24v-0.24-0.24-0.24-0.24l-0.24-0.24v-0.24-0.24-0.24l-0.24-0.48v-0.24-0.24l-0.24-0.24v-0.24-0.24l-0.24-0.24v-0.24-0.24l-0.24-0.24v-0.24-0.24l-0.24-0.24v-0.24l-0.24-0.24v-0.24l-0.24-0.24v-0.24l-0.24-0.24v-0.24l-0.24-0.24v-0.24l-0.24-0.24v-0.24l-0.24-0.24v-0.24l-0.24-0.24v-0.24l-0.24-0.24-0.24-0.24v-0.24l-0.24-0.24-0.24-0.24v-0.24l-0.24-0.24-0.24-0.24-0.24-0.24-0.24-0.24v-0.24l-0.24-0.24-0.24-0.24v-0.24h-0.24l-0.24-0.24-0.24-0.24v-0.24l-0.24-0.24h-0.24l-0.24-0.24v-0.24l-0.24-0.24-0.24-0.24h-0.24l-0.24-0.24-0.24-0.24v-0.24h-0.24l-0.24-0.24-0.24-0.24h-0.24l-0.24-0.24-0.24-0.24-0.24-0.24-0.24-0.24h-0.24l-0.24-0.24-0.24-0.24h-0.24l-0.24-0.24h-0.24l-0.24-0.24h-0.24l-0.24-0.24-0.24-0.24h-0.24l-0.24-0.24h-0.24l-0.24-0.24h-0.24l-0.24-0.24h-0.24l-0.24-0.24h-0.24-0.24l-0.24-0.24h-0.24l-0.24-0.24h-0.24-0.24l-0.24-0.24h-0.24l-0.24-0.24h-0.24-0.24-0.24l-0.24-0.24h-0.24-0.24l-0.48-0.24h-0.24-0.24-0.24l-0.24-0.24h-0.24-0.24-0.24-0.24-0.24l-0.24-0.24h-0.72-0.48"/>
  <path fill="none" stroke="#000000" stroke-width="1.5" stroke-linecap="round" stroke-linejoin="round" d="m919.36 920v-0.24-0.24-0.24-0.24-0.24-0.24-0.24-0.24-0.24-0.24-0.24-0.24-0.24-0.24-0.24-0.24-0.24-0.24-0.24-0.24-0.24-0.24-0.24-0.24-0.24-0.24-0.24-0.24-0.24-0.24-0.24-0.24-0.24-0.24-0.48-0.24-0.24-0.24-0.24-0.24-0.24-0.48-0.24-0.24-0.24-0.24-0.48-0.24-0.24-0.48-0.24-0.24-0.48-0.24-0.24-0.48-0.24-0.48-0.24-0.48-0.24-0.48-0.24-0.48-0.24-0.48-0.24-0.48-0.24-0.48-0.48-0.24-0.48-0.24-0.48-0.48-0.24-0.48-0.48-0.48-0.24-0.48-0.48-0.24-0.48-0.48-0.72-0.96-0.72-0.96-1.68-0.96-0.72-0.96-0.72-0.96-0.24-0.48-0.48-0.48-0.24-0.48-0.48-0.24-0.48-0.48-0.24-0.48-0.48-0.24-0.48-0.48-0.24-0.48-0.24-0.48-0.24-0.48-0.24-0.48-0.24-0.48-0.24-0.48-0.24-0.48-0.24-0.24-0.48-0.24-0.48-0.24-0.24-0.24-0.48-0.24-0.24-0.24-0.48-0.24-0.24-0.24-0.24-0.48-0.24-0.24-0.24-0.24-0.24-0.24-0.24-0.24-0.24-0.24-0.24-0.24-0.24-0.24-0.24-0.24-0.24-0.24-0.24-0.24-0.24-0.24-0.24-0.24-0.24-0.24-0.24-0.24-0.24-0.24-0.24-0.24-0.24-0.24-0.24-0.24-0.24-0.24m-2.16 0h2.16m0 61.92h-5.52"/>
  <path fill="none" stroke="#000000" stroke-width="4" stroke-linecap="round" stroke-linejoin="round" d="m772 226.4v797.04m0 0l1.2 0.48m0 0l7.92-6.96m-6.96 6v-796.32m6.96 6l-8.16-6.96m0 0l-0.96 0.72m3.12 1.2v794.64m6-5.28l2.88 0.24m0 0l4.56 5.76m0 0h5.04"/>
  <path fill="none" stroke="#000000" stroke-width="4" stroke-linecap="round" stroke-linejoin="round" d="m794.32 1022.72l24-3.84"/>
  <path fill="none" stroke="#000000" stroke-width="4" stroke-linecap="round" stroke-linejoin="round" d="m794.32 227.12v795.6"/>
  <path fill="none" stroke="#000000" stroke-width="4" stroke-linecap="round" stroke-linejoin="round" d="m794.32 227.12l24 3.84"/>
  <path fill="none" stroke="#000000" stroke-width="4" stroke-linecap="round" stroke-linejoin="round" d="m793.12 226.88h-4.8m0 0l-4.56 5.52m0 0l-2.64 0.24"/>
  <path fill="none" stroke="#000000" stroke-width="4" stroke-linecap="round" stroke-linejoin="round" d="m806.8 229.04v791.76m79.68-787.68l-47.76-4.32m-20.4 0.48l20.4-0.48m-0.72 0v792m49.68-4.32l-49.92 4.32m-19.44-1.92v1.68m0 0l19.44 0.24m-19.44-791.52v1.68"/>
  <path fill="none" stroke="#000000" stroke-width="1.5" stroke-linecap="round" stroke-linejoin="round" d="m913.84 920h5.52"/>
  <path fill="none" stroke="#000000" stroke-width="4" stroke-linecap="round" stroke-linejoin="round" d="m794.32 227.12l-1.2-0.24m0.48 796.08l0.72-0.24"/>
</svg>
